<?xml version="1.0" ?><!DOCTYPE svg  PUBLIC '-//W3C//DTD SVG 1.1//EN'  'http://www.w3.org/Graphics/SVG/1.1/DTD/svg11.dtd'><svg height="512px" style="shape-rendering:geometricPrecision; text-rendering:geometricPrecision; image-rendering:optimizeQuality; fill-rule:evenodd; clip-rule:evenodd" version="1.1" viewBox="0 0 71.22 71.22" width="512px" xml:space="preserve" xmlns="http://www.w3.org/2000/svg" xmlns:xlink="http://www.w3.org/1999/xlink" xmlns:xodm="http://www.corel.com/coreldraw/odm/2003"><defs><style type="text/css">
   <![CDATA[
    .fil0 {fill:none}
    .fil3 {fill:black;fill-rule:nonzero}
    .fil1 {fill:#FF9900;fill-rule:nonzero}
    .fil2 {fill:white;fill-rule:nonzero}
   ]]>
  </style></defs><g id="Layer_x0020_1"><g id="_2358364052480"><rect class="fil0" height="71.22" width="71.22"/><path class="fil1" d="M62.849 48.269c-0.487,-1.196 -1.035,-2.383 -1.644,-3.521 -0.547,-1.023 -1.195,-2.026 -2.063,-2.809 -0.939,-0.846 -2.072,-1.309 -3.3,-1.561 -1.26,-0.257 -2.56,-0.346 -3.779,-0.78 -1.176,-0.417 -2.229,-1.128 -3.168,-1.939 -1.978,-1.706 -3.466,-3.938 -5.564,-5.505 -1.135,-0.847 -2.462,-1.377 -3.8,-1.81 -1.345,-0.435 -2.726,-0.747 -4.129,-0.924 -2.413,-0.305 -4.879,-0.158 -7.25,0.38 -2.37,0.537 -4.657,1.475 -6.718,2.764 -1.017,0.636 -1.981,1.359 -2.874,2.158 -0.216,0.194 -0.429,0.393 -0.637,0.596 -0.173,0.17 -0.461,0.6 -0.72,0.593 -0.172,-0.005 -0.357,-0.132 -0.515,-0.193 -0.124,-0.048 -0.25,-0.089 -0.378,-0.123 -0.28,-0.074 -0.57,-0.117 -0.86,-0.132 -1.155,-0.062 -2.343,0.369 -3.155,1.2 -0.796,0.815 -1.238,1.975 -1.185,3.113 0.03,0.643 0.251,1.229 0.446,1.836 0.22,0.684 0.281,1.285 -0.026,1.953 -0.281,0.614 -0.589,1.201 -0.793,1.849 -0.2,0.637 -0.327,1.295 -0.387,1.96 -0.061,0.672 -0.043,1.347 0.046,2.016 0.004,0.026 0.011,0.051 0.02,0.073 -0.191,0.418 -0.809,0.474 -1.215,0.404 -0.413,-0.07 -0.812,-0.201 -1.23,-0.242 -0.367,-0.036 -0.728,0.023 -1.059,0.185 -0.598,0.292 -1.004,0.93 -0.926,1.602 0.084,0.734 0.622,1.241 1.349,1.325 0.779,0.09 1.477,-0.349 2.242,-0.351 0.332,-0.002 0.524,0.141 0.582,0.467 0.055,0.308 0.024,0.627 0.114,0.931 0.191,0.654 0.791,1.14 1.47,1.19 0.708,0.052 1.366,-0.388 1.641,-1.029 0.162,-0.377 0.206,-0.785 0.327,-1.175 0.089,-0.288 0.244,-0.623 0.543,-0.743 0.194,-0.078 0.422,-0.049 0.624,-0.037 0.242,0.014 0.484,0.029 0.725,0.044 0.412,0.024 0.825,0.049 1.237,0.074 0.024,0.016 0.05,0.031 0.083,0.041 0.38,0.116 0.719,-0.106 0.963,-0.38 0.208,-0.236 0.39,-0.438 0.73,-0.39 0.657,0.094 1.058,0.719 1.493,1.149 0.231,0.228 0.487,0.428 0.79,0.55 0.379,0.152 0.777,0.112 1.17,0.051 0.407,-0.063 0.801,-0.083 1.212,-0.047 0.412,0.036 0.819,0.108 1.229,0.156 1.708,0.201 3.433,-0.089 5.142,-0.142 1.719,-0.052 3.438,0.04 5.156,0.102 1.953,0.071 3.906,0.142 5.86,0.213 0.074,0.002 0.132,-0.02 0.175,-0.056 3.023,0.026 6.046,0.024 9.069,-0.006 3.065,-0.03 6.13,-0.083 9.195,-0.141 0.831,-0.016 1.667,-0.012 2.497,-0.054 0.656,-0.034 1.297,-0.149 1.843,-0.514 0.138,-0.002 0.278,-0.092 0.283,-0.269 0.042,-1.421 -0.35,-2.798 -0.881,-4.102z"/><g><path class="fil2" d="M19.303 39.771c-0.461,-0.554 -0.924,-1.11 -1.441,-1.613 -0.509,-0.493 -1.082,-0.976 -1.743,-1.25 -0.709,-0.294 -1.427,-0.201 -2.106,0.13 -0.571,0.279 -1.097,0.699 -1.433,1.244 -0.429,0.699 -0.443,1.549 -0.204,2.316 0.107,0.343 0.648,0.196 0.54,-0.149 -0.18,-0.579 -0.214,-1.22 0.081,-1.768 0.261,-0.488 0.704,-0.847 1.187,-1.102 0.569,-0.301 1.172,-0.401 1.774,-0.135 0.57,0.252 1.065,0.681 1.508,1.111 0.518,0.502 0.98,1.058 1.441,1.612 0.23,0.278 0.625,-0.121 0.396,-0.396z"/><path class="fil2" d="M21.856 40.925c-0.254,-0.058 -0.505,-0.131 -0.75,-0.221 -0.06,-0.021 -0.12,-0.044 -0.18,-0.068 -0.025,-0.01 -0.051,-0.021 -0.077,-0.031 -0.007,-0.003 -0.052,-0.023 -0.058,-0.026 -0.122,-0.053 -0.241,-0.111 -0.359,-0.172 -0.13,-0.067 -0.31,-0.038 -0.384,0.101 -0.067,0.128 -0.038,0.311 0.101,0.383 0.493,0.255 1.017,0.45 1.559,0.574 0.142,0.032 0.31,-0.044 0.344,-0.196 0.033,-0.142 -0.043,-0.309 -0.196,-0.344z"/><path class="fil2" d="M8.147 50.719c-0.052,-0.047 -0.125,-0.088 -0.198,-0.082 -0.108,0.01 -0.207,0.034 -0.301,0.09 -0.092,0.055 -0.159,0.125 -0.223,0.209 -0.048,0.064 -0.083,0.141 -0.105,0.218 -0.029,0.107 -0.027,0.209 -0.008,0.316 0.012,0.066 0.074,0.136 0.129,0.168 0.06,0.035 0.148,0.05 0.216,0.028 0.067,-0.022 0.133,-0.064 0.167,-0.128l0.028 -0.068c0.009,-0.032 0.01,-0.064 0.007,-0.097 -0.002,-0.018 0,-0.036 0.001,-0.055 0.002,-0.01 0.005,-0.019 0.008,-0.029 0.007,-0.014 0.015,-0.027 0.023,-0.039 0.009,-0.01 0.018,-0.02 0.028,-0.028 0.009,-0.006 0.018,-0.011 0.027,-0.016 0.014,-0.005 0.027,-0.009 0.042,-0.012 0.024,-0.003 0.047,-0.009 0.069,-0.021 0.034,-0.011 0.065,-0.03 0.09,-0.058 0.048,-0.048 0.085,-0.128 0.082,-0.198 -0.003,-0.072 -0.027,-0.147 -0.082,-0.198z"/><path class="fil2" d="M21.581 48.749c-0.262,-0.685 -1.026,-0.94 -1.705,-0.782 -0.815,0.19 -1.366,0.877 -2.135,1.154 -0.387,0.139 -0.783,0.121 -1.173,-0.001 -0.387,-0.121 -0.713,-0.359 -1.082,-0.519 -0.36,-0.156 -0.74,-0.202 -1.107,-0.046 -0.325,0.139 -0.578,0.394 -0.802,0.66 -0.262,0.311 -0.51,0.625 -0.814,0.897 -0.33,0.296 -0.7,0.539 -1.094,0.738 -0.322,0.162 -0.039,0.645 0.282,0.483 0.652,-0.328 1.243,-0.787 1.713,-1.346 0.351,-0.415 0.772,-1.121 1.414,-0.943 0.36,0.1 0.669,0.345 1.011,0.492 0.348,0.149 0.721,0.248 1.102,0.246 0.821,-0.002 1.426,-0.52 2.084,-0.933 0.318,-0.2 0.677,-0.388 1.064,-0.371 0.272,0.012 0.598,0.147 0.702,0.42 0.055,0.141 0.189,0.238 0.345,0.195 0.135,-0.037 0.25,-0.202 0.195,-0.344z"/><path class="fil2" d="M22.077 50.251c-0.027,-0.06 -0.107,-0.112 -0.168,-0.129 -0.067,-0.018 -0.156,-0.01 -0.216,0.028 -0.134,0.087 -0.162,0.231 -0.105,0.371 0,0 0,0 0,-0.001l0.001 0.002c0.001,0.004 0.002,0.007 0.004,0.012 0.002,0.003 0.002,0.005 0.003,0.008 0.003,0.005 0.005,0.01 0.007,0.015 0.007,0.018 0.013,0.036 0.02,0.055 0.015,0.043 0.028,0.087 0.039,0.131 0.011,0.044 0.02,0.089 0.028,0.134l0.003 0.019c0.005,0.031 0.004,0.026 -0.002,-0.016 0.009,0.014 0.006,0.05 0.007,0.068 0.007,0.087 0.007,0.176 0,0.264 -0.001,0.018 -0.003,0.035 -0.005,0.054 -0.001,0.008 -0.003,0.017 -0.004,0.026 -0.008,0.045 -0.018,0.09 -0.029,0.134 -0.037,0.141 0.046,0.31 0.195,0.344 0.146,0.033 0.306,-0.044 0.345,-0.195 0.114,-0.447 0.064,-0.906 -0.123,-1.324z"/><path class="fil2" d="M42.827 33.891c-1.555,-1.656 -3.888,-2.414 -6.053,-2.866 -2.357,-0.492 -4.789,-0.558 -7.17,-0.212 -1.342,0.195 -2.662,0.527 -3.936,0.99 -0.336,0.122 -0.191,0.664 0.149,0.54 2.192,-0.796 4.513,-1.198 6.845,-1.19 2.3,0.008 4.632,0.398 6.78,1.23 1.11,0.431 2.168,1.03 2.989,1.905 0.247,0.263 0.642,-0.134 0.396,-0.397z"/><path class="fil2" d="M44.851 35.835l-1.006 -0.947c-0.106,-0.101 -0.291,-0.114 -0.396,0 -0.1,0.109 -0.114,0.289 0,0.396 0.336,0.315 0.671,0.631 1.006,0.947 0.107,0.1 0.292,0.114 0.396,0 0.1,-0.109 0.114,-0.289 0,-0.396z"/><path class="fil2" d="M46.689 37.469c-0.023,-0.072 -0.066,-0.125 -0.129,-0.168 -0.037,-0.024 -0.072,-0.051 -0.108,-0.078 -0.145,-0.115 -0.279,-0.243 -0.399,-0.386 -0.043,-0.052 -0.132,-0.082 -0.198,-0.082 -0.068,0 -0.15,0.031 -0.198,0.082 -0.049,0.053 -0.085,0.124 -0.082,0.198 0.004,0.025 0.007,0.05 0.01,0.075 0.014,0.047 0.038,0.088 0.072,0.123 0.179,0.213 0.39,0.397 0.621,0.552 0.058,0.039 0.15,0.046 0.216,0.028 0.064,-0.018 0.135,-0.068 0.167,-0.129 0.034,-0.065 0.051,-0.143 0.028,-0.215z"/></g><g><path class="fil3" d="M17.162 10.772c-0.519,-0.501 -1.312,0.29 -0.793,0.792 1.04,1.004 2.146,2.049 2.674,3.428 0.548,1.43 0.173,2.657 -0.681,3.85 -0.701,0.978 -1.468,1.878 -1.825,3.051 -0.386,1.27 -0.304,2.656 0.189,3.881 0.265,0.661 1.349,0.373 1.08,-0.297 -0.565,-1.404 -0.522,-2.952 0.248,-4.273 0.637,-1.094 1.581,-1.987 2.067,-3.171 1.179,-2.871 -1.035,-5.402 -2.959,-7.261z"/><path class="fil3" d="M19.538 27.771c-0.295,-0.304 -0.566,-0.627 -0.807,-0.976 -0.171,-0.248 -0.491,-0.362 -0.766,-0.201 -0.246,0.144 -0.373,0.516 -0.201,0.767 0.295,0.426 0.621,0.83 0.982,1.202 0.503,0.518 1.295,-0.274 0.792,-0.792z"/><path class="fil3" d="M36.677 10.02c-1.135,0.602 -1.99,1.665 -2.313,2.913 -0.352,1.357 0.076,2.64 0.53,3.914 0.229,0.644 0.491,1.325 0.502,2.017 0.015,0.844 -0.415,1.477 -0.951,2.09 -0.912,1.041 -1.875,2.163 -1.504,3.645 0.175,0.699 1.256,0.403 1.08,-0.298 -0.339,-1.353 1.186,-2.378 1.861,-3.361 0.698,-1.018 0.745,-2.191 0.43,-3.354 -0.323,-1.192 -0.993,-2.354 -0.97,-3.616 0.023,-1.272 0.796,-2.396 1.9,-2.983 0.637,-0.338 0.072,-1.305 -0.565,-0.967z"/><path class="fil3" d="M53.382 32.008c-0.283,-0.538 -0.744,-1.004 -0.866,-1.617 -0.121,-0.605 0.07,-1.218 0.472,-1.676 0.474,-0.54 -0.315,-1.335 -0.792,-0.792 -0.758,0.862 -1.056,2.05 -0.643,3.147 0.225,0.596 0.674,1.064 0.925,1.643 0.337,0.78 0.061,1.602 -0.246,2.344 -0.276,0.666 0.807,0.956 1.08,0.298 0.456,-1.101 0.646,-2.251 0.07,-3.347z"/><path class="fil3" d="M56.989 20.276c-0.307,-1.289 -1.377,-1.891 -2.014,-2.963 -0.626,-1.053 -0.389,-2.447 0.452,-3.303 0.505,-0.515 -0.287,-1.308 -0.792,-0.792 -0.747,0.761 -1.161,1.789 -1.128,2.859 0.036,1.204 0.62,2.076 1.422,2.923 0.986,1.042 1.294,2.201 0.833,3.587 -0.466,1.398 -1.587,2.479 -2.602,3.495 -0.51,0.511 0.281,1.303 0.792,0.792 1.739,-1.741 3.671,-3.928 3.037,-6.598z"/><path class="fil3" d="M69.292 55.918c-1.069,2.037 -2.481,3.875 -4.955,3.976 -3.032,0.124 -6.088,0.035 -9.123,0.049l-9.077 0.04c-12.104,0.053 -24.208,0.111 -36.311,0.16 -1.438,0.006 -2.911,0.023 -4.302,-0.392 -1.357,-0.405 -2.402,-1.294 -3.139,-2.491 -0.35,-0.568 -0.638,-1.175 -0.881,-1.796 -0.158,-0.405 -0.639,-1.347 -0.344,-1.777 0.44,-0.642 1.942,-0.306 2.589,-0.313 0.592,-0.007 1.188,0.007 1.777,-0.056 0.577,-0.062 0.92,-0.116 1.48,0.023 0.653,0.163 1.301,-0.06 1.945,-0.16 0.773,-0.12 0.487,0.402 0.579,0.919 0.377,2.111 3.923,1.797 4.579,0.043 0.146,-0.39 -0.003,-1.028 0.225,-1.359 0.405,-0.588 1.787,0.1 2.321,0.178 0.374,0.055 0.769,0.047 1.125,-0.093 0.331,-0.129 0.49,-0.507 0.781,-0.615 0.303,-0.112 0.687,0.736 0.876,0.922 0.844,0.823 2.04,0.779 3.136,0.783 1.522,0.006 3.044,0.018 4.566,0.028 3.041,0.019 6.083,0.04 9.125,0.06 1.186,0.008 2.373,0.016 3.559,0.024 2.824,0.017 5.648,0.034 8.472,0.047 1.412,0.006 2.824,0.012 4.236,0.017 2.387,0.008 4.774,-0.085 7.155,-0.252 1.469,-0.103 2.926,-0.34 4.396,-0.421 1.214,-0.066 2.429,-0.087 3.644,-0.079 0.557,0.004 2.28,-0.217 2.381,0.648 0.062,0.532 -0.571,1.423 -0.815,1.887zm-62.459 -5.427c0.364,-0.413 1.001,-0.402 1.489,-0.283 0.915,0.224 1.688,0.835 2.665,0.473 0.818,-0.303 1.242,-1.063 1.703,-1.745 0.621,-0.919 1.467,-1.26 2.542,-1.26 0.252,0 0.441,0.332 0.619,0.485 0.213,0.182 0.451,0.342 0.725,0.413 1.015,0.262 1.516,-0.841 2.354,-1.147 0.889,-0.325 1.981,-0.124 2.712,0.47 0.513,0.417 0.73,1.029 0.872,1.652 0.071,0.311 0.14,0.624 0.214,0.933 0.28,1.171 -0.619,2.75 -1.973,2.249 -0.891,-0.329 -0.96,-1.565 -1.968,-1.699 -0.369,-0.049 -0.672,0.081 -0.936,0.335 -0.377,0.362 -0.522,0.571 -1.088,0.485 -0.821,-0.125 -1.568,-0.551 -2.424,-0.334 -0.829,0.21 -1.147,0.886 -1.207,1.682 -0.045,0.597 -0.216,0.917 -0.798,1.115 -0.461,0.158 -1.234,0.282 -1.58,-0.167 -0.324,-0.42 0.047,-0.938 -0.114,-1.397 -0.136,-0.387 -0.462,-0.61 -0.852,-0.695 -0.514,-0.112 -1.036,0.035 -1.537,0.141 -0.379,0.08 -0.851,0.225 -1.191,-0.04 -0.11,-0.085 -0.192,-0.199 -0.263,-0.318 -0.241,-0.401 -0.291,-0.976 0.036,-1.348zm5.066 -6.829c0.579,0.815 1.245,1.572 1.855,2.267 0.195,0.223 0.393,0.442 0.592,0.66 -0.781,0.114 -1.522,0.474 -2.071,1.057 -0.396,0.42 -0.648,0.938 -0.994,1.394 -0.173,0.228 -0.346,0.381 -0.527,0.476 -0.117,-1.957 0.441,-4.012 1.145,-5.854zm-0.812 -6.385c-0.916,-0.729 -1.819,-1.49 -2.77,-2.168 -0.917,-0.655 -1.81,-0.47 -2.784,-0.051 -0.977,0.42 -2.05,0.668 -2.979,-0.036 -0.74,-0.56 -0.942,-1.641 -0.407,-2.417 0.567,-0.825 1.788,-0.624 2.543,-1.228 0.653,-0.522 0.936,-1.318 1.227,-2.073 0.337,-0.877 0.785,-1.834 1.887,-1.797 1.461,0.05 1.626,1.531 1.691,2.653 0.13,2.265 1.34,4.311 3.262,5.501 -0.456,0.279 -0.867,0.627 -1.207,1.034 -0.171,0.179 -0.325,0.374 -0.463,0.582zm-1.296 -11.084c0.245,0.021 0.493,0.078 0.726,0.17 -0.48,0.132 -0.957,0.272 -1.431,0.418 -0.29,-0.16 -0.605,-0.27 -0.928,-0.323 0.523,-0.195 1.067,-0.313 1.633,-0.265zm1.371 0.575c0.192,0.188 0.327,0.415 0.421,0.662 -0.484,0.11 -0.964,0.236 -1.442,0.369 -0.136,-0.227 -0.3,-0.43 -0.487,-0.605 0.499,-0.149 1,-0.291 1.503,-0.424 0.002,-0.001 0.003,-0.001 0.005,-0.002zm0.629 2.014c-0.011,0.001 -0.021,0.002 -0.032,0.004 -0.404,0.088 -0.808,0.175 -1.211,0.263 -0.027,-0.22 -0.066,-0.438 -0.134,-0.65 -0.01,-0.029 -0.021,-0.057 -0.031,-0.085 0.444,-0.123 0.89,-0.239 1.338,-0.341 0.043,0.267 0.058,0.538 0.07,0.809zm0.036 0.676c0.018,0.21 0.048,0.416 0.09,0.619 -0.429,0.093 -0.858,0.187 -1.288,0.28 -0.002,-0.027 -0.005,-0.053 -0.007,-0.08 -0.015,-0.22 -0.021,-0.443 -0.031,-0.665 0.409,-0.089 0.819,-0.178 1.228,-0.267 0.003,0.038 0.005,0.075 0.008,0.113zm0.384 1.495c0.063,0.129 0.134,0.255 0.211,0.377 -0.507,0.109 -1.015,0.219 -1.522,0.329 -0.082,-0.244 -0.148,-0.493 -0.195,-0.746 0.455,-0.099 0.91,-0.198 1.365,-0.297 0.041,0.113 0.088,0.226 0.141,0.337zm0.577 0.87c0.197,0.227 0.419,0.433 0.658,0.616 -0.627,0.199 -1.26,0.377 -1.898,0.534 -0.168,-0.252 -0.318,-0.515 -0.442,-0.787 0.561,-0.121 1.122,-0.242 1.682,-0.363zm1.216 1.025c0.015,-0.006 0.029,-0.013 0.042,-0.02 0.108,0.059 0.216,0.114 0.327,0.163 0.254,0.112 0.514,0.206 0.778,0.292 -0.854,0.314 -1.718,0.599 -2.59,0.857 -0.233,-0.21 -0.451,-0.437 -0.651,-0.679 0.705,-0.18 1.403,-0.384 2.094,-0.613zm2.017 0.693c0.113,0.032 0.226,0.064 0.339,0.096 0.192,0.056 0.385,0.111 0.578,0.167 -1.058,0.364 -2.099,0.772 -3.124,1.222 -0.25,-0.134 -0.494,-0.287 -0.728,-0.458 0.965,-0.295 1.92,-0.623 2.861,-0.987 0.027,-0.01 0.051,-0.024 0.074,-0.04zm1.849 0.531c0.02,0.006 0.039,0.011 0.058,0.017 -0.466,0.344 -0.923,0.699 -1.371,1.063 -0.337,-0.119 -0.698,-0.194 -1.089,-0.212 0.772,-0.304 1.553,-0.586 2.343,-0.841 0.022,-0.008 0.042,-0.016 0.059,-0.027zm5.099 13.618c-0.439,-0.609 -1.072,-1.044 -1.775,-1.297 -0.687,-0.248 -1.453,-0.302 -2.168,-0.152 -0.338,0.071 -0.671,0.192 -0.973,0.36 -0.344,0.192 -0.582,0.549 -0.91,0.734 -0.374,0.211 -0.586,-0.057 -0.853,-0.325 -0.241,-0.242 -0.477,-0.488 -0.711,-0.736 -0.439,-0.466 -0.867,-0.942 -1.285,-1.427 -0.827,-0.961 -1.666,-1.956 -2.235,-3.098 -0.422,-0.849 -0.726,-1.788 -0.547,-2.745 0.355,-1.893 2.478,-3.266 4.363,-2.9 1.633,0.316 2.657,1.964 3.917,2.896 1.554,1.149 3.493,1.457 5.273,2.099 1.964,0.709 3.364,2.084 3.894,4.133 0.46,1.779 0.225,3.817 -0.959,5.276 -0.524,0.646 -1.251,1.147 -2.093,1.231 -1.183,0.117 -1.879,-0.578 -2.135,-1.672 -0.193,-0.824 -0.294,-1.671 -0.803,-2.377zm16.929 -16.604c3.487,1.421 6.171,3.896 8.659,6.646 1.226,1.354 2.501,2.188 4.338,2.389 1.868,0.204 3.466,0.56 5.008,1.698 1.58,1.165 2.753,2.772 3.58,4.538 0.408,0.874 0.737,1.784 1.011,2.708 0.194,0.655 0.499,1.274 0.607,1.955 0.143,0.895 -0.268,1.25 -1.107,1.391 -1.313,0.221 -2.674,0.283 -4.001,0.37 -2.855,0.187 -5.718,0.224 -8.579,0.204 -3.507,-0.025 -7.016,-0.038 -10.524,-0.057 -2.423,-0.013 -4.847,-0.027 -7.27,-0.04 -2.761,-0.015 -5.522,-0.03 -8.282,-0.045 0.152,-0.212 0.275,-0.448 0.361,-0.704 1.049,0.895 2.668,0.96 3.977,0.141 1.71,-1.071 2.583,-3.19 2.622,-5.148 0.043,-2.179 -0.805,-4.47 -2.543,-5.849 -1.873,-1.485 -4.325,-1.592 -6.403,-2.639 -1.412,-0.711 -2.433,-2.073 -3.712,-2.934 6.187,-4.914 14.603,-7.741 22.258,-4.624zm-1.59 -4.09c0.674,-0.641 1.178,-1.381 0.865,-2.342 -0.307,-0.94 -1.046,-1.899 -0.198,-2.827 0.33,-0.362 0.871,-0.511 1.344,-0.378 0.489,0.138 0.71,0.548 0.867,0.999 0.251,0.717 0.366,1.507 0.923,2.07 0.637,0.646 1.513,0.661 2.355,0.531 0.927,-0.143 2.133,-0.488 2.667,0.575 0.615,1.226 -0.678,2.087 -1.765,2.005 -1.099,-0.083 -1.931,-0.727 -3.041,-0.222 -1.056,0.48 -2.02,1.37 -2.88,2.155 -0.652,-0.145 -1.308,-0.275 -1.964,-0.396 -0.426,-0.079 -0.852,-0.148 -1.277,-0.208 0.704,-0.651 1.41,-1.301 2.104,-1.962zm8.922 1.407c-0.377,0.376 -0.86,0.624 -1.385,0.709 -0.279,0.045 -0.561,0.052 -0.843,0.061 -0.031,-0.029 -0.068,-0.051 -0.111,-0.06 -0.433,-0.09 -0.85,-0.233 -1.243,-0.436 -0.211,-0.11 -0.421,-0.23 -0.639,-0.328 0.174,-0.047 0.354,-0.063 0.54,-0.031 0.55,0.095 1.05,0.35 1.612,0.411 0.518,0.057 1.055,0.018 1.547,-0.16 0.283,-0.102 0.53,-0.247 0.74,-0.421 -0.066,0.089 -0.138,0.175 -0.218,0.255zm-3.899 1.202c-0.508,-0.194 -1.023,-0.37 -1.544,-0.528 0.157,-0.12 0.322,-0.249 0.495,-0.367 0.002,0 0.003,0.001 0.005,0.001 0.425,0.062 0.778,0.3 1.155,0.488 0.114,0.057 0.231,0.11 0.349,0.159 -0.164,0.066 -0.316,0.151 -0.46,0.247zm-2.556 0.281c0.154,-0.131 0.309,-0.259 0.466,-0.386 0.522,0.149 1.038,0.315 1.548,0.5 -0.157,0.114 -0.32,0.224 -0.497,0.313 -0.011,0.005 -0.02,0.012 -0.029,0.018 -0.491,-0.164 -0.987,-0.312 -1.488,-0.445zm2.39 1.343c-0.11,0.026 -0.221,0.052 -0.331,0.077 -0.403,-0.236 -0.813,-0.46 -1.231,-0.668 0.529,0.173 1.05,0.372 1.562,0.591zm0.816 0.385c0.005,-0.001 0.009,-0.004 0.014,-0.005 0.081,0.039 0.162,0.075 0.242,0.115 0.144,0.073 0.287,0.148 0.43,0.224 -0.194,0.053 -0.387,0.105 -0.58,0.157 -0.19,-0.13 -0.382,-0.258 -0.575,-0.382 0.156,-0.036 0.312,-0.073 0.469,-0.109zm1.278 0.755c0.03,-0.008 0.057,-0.023 0.082,-0.04 0.177,0.104 0.353,0.212 0.527,0.322 -0.245,0.069 -0.489,0.141 -0.732,0.218 -0.151,-0.116 -0.302,-0.232 -0.455,-0.344 0.192,-0.052 0.385,-0.104 0.578,-0.156zm1.201 0.673c0.169,0.118 0.337,0.238 0.503,0.36 -0.3,0.07 -0.6,0.142 -0.899,0.216 -0.04,-0.034 -0.079,-0.071 -0.12,-0.106 -0.091,-0.075 -0.184,-0.148 -0.276,-0.223 0.23,-0.068 0.461,-0.134 0.693,-0.196 0.036,-0.009 0.07,-0.027 0.099,-0.051zm1.531 1.188c-0.333,0.074 -0.664,0.158 -0.993,0.25 -0.14,-0.138 -0.282,-0.275 -0.427,-0.41 0.32,-0.077 0.641,-0.153 0.962,-0.225 0.155,0.125 0.307,0.255 0.458,0.385zm0.476 0.47c0.014,-0.003 0.027,-0.009 0.04,-0.014 0.163,0.148 0.326,0.297 0.489,0.445 -0.369,0.092 -0.739,0.181 -1.11,0.267 -0.145,-0.154 -0.289,-0.308 -0.436,-0.46 0.337,-0.089 0.675,-0.169 1.017,-0.238zm1.456 1.261c-0.388,0.134 -0.782,0.254 -1.179,0.359 -0.14,-0.15 -0.278,-0.3 -0.417,-0.45 0.39,-0.093 0.78,-0.187 1.17,-0.285 0.141,0.126 0.283,0.252 0.426,0.376zm0.499 0.416c0.233,0.186 0.471,0.363 0.714,0.529 -0.491,0.126 -0.982,0.252 -1.473,0.378 -0.164,-0.165 -0.326,-0.333 -0.485,-0.501 0.419,-0.119 0.834,-0.254 1.242,-0.406 0.001,0 0.002,0 0.002,0zm1.255 0.968c0.034,-0.009 0.064,-0.024 0.091,-0.045 0.23,0.132 0.465,0.253 0.706,0.362 -0.581,0.195 -1.165,0.379 -1.753,0.552 -0.203,-0.142 -0.399,-0.298 -0.589,-0.472 0.515,-0.132 1.03,-0.265 1.545,-0.397zm1.501 0.666c0.031,-0.01 0.059,-0.026 0.084,-0.044 0.126,0.04 0.253,0.079 0.382,0.112 0.212,0.055 0.425,0.103 0.639,0.148 -0.574,0.244 -1.147,0.488 -1.721,0.733 -0.002,-0.001 -0.004,-0.001 -0.007,-0.001 -0.423,-0.066 -0.809,-0.19 -1.168,-0.36 0.601,-0.184 1.198,-0.38 1.791,-0.588zm2.088 0.401c0.426,0.076 0.852,0.153 1.273,0.249 -0.484,0.205 -0.966,0.413 -1.448,0.623 -0.469,-0.098 -0.941,-0.147 -1.416,-0.195 0.53,-0.225 1.061,-0.451 1.591,-0.677zm2.072 0.513c0.02,-0.009 0.039,-0.02 0.058,-0.031 0.077,0.025 0.154,0.05 0.231,0.078 0.185,0.066 0.366,0.141 0.545,0.219 -0.489,0.219 -0.981,0.431 -1.478,0.632 -0.248,-0.111 -0.5,-0.212 -0.757,-0.3 0.466,-0.202 0.932,-0.401 1.401,-0.598zm1.49 0.584c0.254,0.136 0.5,0.285 0.74,0.443l-1.533 0.603c-0.221,-0.144 -0.447,-0.279 -0.679,-0.404 0.494,-0.207 0.985,-0.419 1.472,-0.642zm2.011 1.434c-0.527,0.169 -1.049,0.353 -1.567,0.549 -0.222,-0.193 -0.452,-0.378 -0.689,-0.554 0.51,-0.201 1.02,-0.402 1.53,-0.602 0.251,0.19 0.492,0.394 0.726,0.607zm1.049 1.085c-0.312,0.106 -0.623,0.213 -0.935,0.319 -0.186,0.064 -0.372,0.128 -0.558,0.192l-0.053 0.018c-0.131,-0.148 -0.265,-0.294 -0.404,-0.437 -0.068,-0.069 -0.138,-0.136 -0.208,-0.204 0.519,-0.191 1.042,-0.369 1.57,-0.533 0.204,0.207 0.399,0.423 0.588,0.645zm0.375 0.462c0.171,0.222 0.333,0.45 0.488,0.682 -0.519,0.164 -1.042,0.312 -1.57,0.446 -0.145,-0.205 -0.294,-0.406 -0.452,-0.603l0.473 -0.162 1.058 -0.362c0.001,0 0.002,-0.001 0.003,-0.001zm0.802 1.174c0.145,0.239 0.28,0.483 0.41,0.73 -0.271,0.049 -0.535,0.127 -0.799,0.211 -0.242,0.077 -0.49,0.158 -0.738,0.209 -0.135,-0.238 -0.274,-0.474 -0.423,-0.704 0.52,-0.135 1.037,-0.284 1.549,-0.449 0,0.001 0.001,0.002 0.001,0.003zm0.996 1.981c-0.509,0.114 -1.018,0.225 -1.527,0.334 -0.103,-0.221 -0.209,-0.441 -0.321,-0.657 0.182,-0.044 0.362,-0.098 0.542,-0.155 0.32,-0.102 0.654,-0.215 0.983,-0.25 0.114,0.239 0.221,0.483 0.323,0.728zm0.488 1.312c-0.5,0.076 -0.996,0.171 -1.489,0.285 -0.093,-0.249 -0.191,-0.497 -0.295,-0.741 0.503,-0.108 1.006,-0.217 1.507,-0.33 0.099,0.26 0.19,0.523 0.277,0.786zm0.364 1.27c-0.481,0.069 -0.96,0.149 -1.437,0.237 -0.073,-0.232 -0.147,-0.463 -0.226,-0.692 0.485,-0.111 0.974,-0.204 1.466,-0.277 0.071,0.242 0.135,0.487 0.197,0.732zm0.309 1.364c-0.463,0.03 -0.924,0.085 -1.381,0.166 -0.065,-0.252 -0.132,-0.504 -0.204,-0.755 0.467,-0.086 0.935,-0.164 1.406,-0.232 0.062,0.273 0.121,0.547 0.179,0.821zm0.295 1.376c-0.267,0.019 -0.534,0.038 -0.801,0.057 -0.162,0.012 -0.323,0.023 -0.485,0.035 -0.028,0.002 -0.057,0.004 -0.085,0.006 -0.056,-0.255 -0.111,-0.51 -0.172,-0.764 0.451,-0.08 0.904,-0.133 1.364,-0.158 0.058,0.275 0.118,0.55 0.179,0.824zm0.316 1.262c-0.486,0.023 -0.966,0.055 -1.434,0.086 -0.043,-0.233 -0.091,-0.466 -0.138,-0.698 0.009,-0.001 0.018,-0.001 0.026,-0.002 0.156,-0.011 0.311,-0.022 0.466,-0.034 0.297,-0.021 0.594,-0.042 0.891,-0.063 0.057,0.238 0.121,0.475 0.189,0.711zm5.231 1.127c-0.29,-0.554 -0.889,-0.834 -1.476,-0.952 -1.014,-0.203 -2.101,-0.232 -3.179,-0.199 -0.403,-1.366 -0.601,-2.782 -0.957,-4.161 -0.34,-1.315 -0.805,-2.602 -1.428,-3.811 -1.157,-2.246 -2.928,-4.231 -5.214,-5.361 -0.567,-0.28 -1.161,-0.508 -1.773,-0.67 -0.678,-0.18 -1.373,-0.286 -2.063,-0.412 -0.686,-0.124 -1.373,-0.267 -2.026,-0.518 -0.582,-0.224 -1.125,-0.548 -1.631,-0.91 -1.035,-0.74 -1.923,-1.66 -2.882,-2.491 -0.985,-0.854 -2.054,-1.608 -3.191,-2.245 -0.743,-0.416 -1.514,-0.761 -2.303,-1.056 0.392,-0.28 0.744,-0.624 1.223,-0.748 0.642,-0.166 1.322,-0.055 1.97,-0.197 1.176,-0.256 2.145,-1.26 2.329,-2.453 0.098,-0.637 0.006,-1.286 -0.276,-1.862 -0.216,-0.577 -0.652,-1.081 -1.318,-1.365 -1.066,-0.456 -2.08,0.067 -3.162,0.062 -1.219,-0.006 -1.22,-1.395 -1.593,-2.256 -0.825,-1.904 -3.523,-1.927 -4.389,-0.024 -0.233,0.511 -0.312,1.072 -0.236,1.628 0.087,0.641 0.658,1.264 0.647,1.881 -0.011,0.689 -1.035,1.354 -1.503,1.79 -0.621,0.578 -1.242,1.156 -1.863,1.734 -0.011,0.01 -0.017,0.021 -0.027,0.031 -1.947,-0.166 -3.887,-0.101 -5.857,0.275 -3.769,0.719 -7.261,2.403 -10.38,4.606 -0.6,-0.172 -1.199,-0.345 -1.799,-0.517 -0.607,-0.175 -1.225,-0.33 -1.817,-0.553 -0.957,-0.361 -1.781,-1.043 -2.217,-1.979 -0.459,-0.983 -0.208,-2.098 -0.478,-3.124 -0.27,-1.024 -1.123,-1.686 -2.153,-1.836 -1.295,-0.188 -2.706,0.32 -3.725,1.105 -1.177,0.908 -1.213,2.272 -2.024,3.411 -0.637,0.894 -1.986,0.638 -2.766,1.421 -1.525,1.529 -0.722,4.021 1.169,4.756 1.279,0.497 2.344,0.083 3.544,-0.388 0.367,-0.145 0.766,-0.288 1.155,-0.123 0.386,0.164 0.728,0.522 1.055,0.778 0.712,0.559 1.424,1.118 2.136,1.677 -0.124,0.366 -0.199,0.744 -0.216,1.118 -0.052,1.101 0.284,2.136 0.808,3.101 -0.031,0.042 -0.059,0.088 -0.081,0.142 -0.858,2.09 -1.602,4.542 -1.463,6.84 -0.059,-0.021 -0.119,-0.044 -0.181,-0.069 -1.024,-0.422 -2.197,-0.661 -3.158,0.051 -0.592,0.438 -0.829,1.131 -0.778,1.85 0.021,0.296 0.088,0.576 0.193,0.828 -0.664,0.031 -1.329,0.061 -1.994,0.092 -0.786,0.036 -1.63,-0.012 -2.405,0.138 -1.248,0.241 -1.498,1.414 -1.194,2.5 0.689,2.463 2.206,4.878 4.685,5.798 1.258,0.468 2.637,0.555 3.967,0.573 1.701,0.023 3.405,-0.009 5.107,-0.016 3.444,-0.016 6.889,-0.031 10.334,-0.046 6.983,-0.031 13.966,-0.062 20.949,-0.093 3.445,-0.015 6.89,-0.03 10.335,-0.046 1.722,-0.007 3.444,-0.015 5.167,-0.022 1.573,-0.007 3.255,0.152 4.808,-0.145 2.78,-0.532 4.333,-3.313 5.41,-5.67 0.268,-0.586 0.509,-1.249 0.185,-1.868z"/></g></g></g></svg>