<?xml version="1.0" ?><svg height="512px" version="1.1" viewBox="0 0 512 512" width="512px" xmlns="http://www.w3.org/2000/svg" xmlns:xlink="http://www.w3.org/1999/xlink"><title/><desc/><defs/><g fill="none" fill-rule="evenodd" id="SVG" stroke="none" stroke-width="1"><g id="Apple"><g transform="translate(16.000000, 0.000000)"><path d="M460.655591,256.742642 C460.655591,133.730537 360.969948,68.8815973 237.983954,68.8815973 C115.013289,68.8815973 15.327645,133.730537 15.327645,256.742642 C15.327645,281.369598 19.4818522,304.984488 26.8551867,327.12728 L26.7478825,327.12728 C26.7478825,327.12728 98.1052055,552.572801 237.983954,479.489319 C377.878031,552.572801 449.235354,327.12728 449.235354,327.12728 L449.12805,327.12728 C456.501384,304.984488 460.655591,281.369598 460.655591,256.742642" fill="#E34361" id="Fill-1"/><path d="M460.655591,256.742642 C460.655591,179.365544 421.167629,125.035964 361.29186,95.3486746 C397.376745,126.768745 419.573395,171.545029 419.573395,229.34017 C419.573395,253.967126 415.419187,277.582015 408.045853,299.740142 L408.153157,299.740142 C408.153157,299.740142 352.523571,475.226372 243.287849,466.194443 C238.719754,472.619533 233.293225,478.615261 227.483467,484.36564 C230.947861,482.878209 234.427584,481.344775 237.983954,479.489319 C377.878031,552.572801 449.235354,327.12728 449.235354,327.12728 L449.12805,327.12728 C456.501384,304.984488 460.655591,281.369598 460.655591,256.742642" fill="#BC395B" id="Fill-3"/><path d="M237.991618,204.983098 C183.343099,204.983098 160.088736,176.384547 159.122998,175.1578 C153.86509,168.518029 154.98412,158.872727 161.636983,153.613047 C168.259188,148.368701 177.91657,149.488109 183.159149,156.127879 C183.634353,156.679916 199.070836,174.314411 237.991618,174.314411 C276.912401,174.314411 292.333554,156.679916 292.977379,155.928533 C298.403908,149.549446 308.015303,148.598717 314.468887,153.889065 C320.92247,159.210082 322.0415,168.594701 316.860238,175.1578 C315.8945,176.384547 292.640137,204.983098 237.991618,204.983098" fill="#454849" id="Fill-5"/><path d="M237.991618,464.154975 C240.428957,464.154975 242.866297,464.73768 245.089027,465.887756 C273.20274,480.593392 299.10905,482.694197 324.233573,472.297512 C391.375372,444.588353 429.330416,338.183342 434.11312,324.045077 C434.235753,323.447037 434.389045,322.864332 434.588324,322.281627 C441.716392,300.890218 445.318749,278.824097 445.318749,256.742642 C445.318749,129.390918 333.630359,84.2159411 237.991618,84.2159411 C142.352877,84.2159411 30.6644874,129.390918 30.6644874,256.742642 C30.6644874,278.824097 34.2668442,300.890218 41.3949119,322.281627 C41.5941912,322.864332 41.747483,323.462372 41.8701164,324.045077 C46.6834783,338.229345 84.8071437,444.711028 151.780322,472.328181 C176.920173,482.648194 202.780497,480.562723 230.894209,465.887756 C233.11694,464.73768 235.554279,464.154975 237.991618,464.154975 M292.502175,509.437292 C274.643682,509.437292 256.432619,505.15901 237.991618,496.587112 C204.313414,512.243477 171.416999,513.638903 140.038172,500.650713 C55.3751221,465.703744 13.8483793,337.217278 12.1315114,331.758252 C11.9628904,331.236884 11.8249278,330.715516 11.7176236,330.178814 C3.94573038,306.195901 0.00613167115,281.507607 0.00613167115,256.742642 C0.00613167115,135.202634 95.6448724,53.5472536 237.991618,53.5472536 C380.338364,53.5472536 475.977105,135.202634 475.977105,256.742642 C475.977105,281.507607 472.037506,306.195901 464.265613,330.194149 C464.158308,330.715516 464.020346,331.236884 463.851725,331.758252 C462.134857,337.217278 420.608114,465.703744 335.945065,500.650713 C321.750246,506.508433 307.248844,509.437292 292.502175,509.437292" fill="#454849" id="Fill-7"/><path d="M237.968624,204.969298 C231.423065,204.969298 225.383369,200.767687 223.344589,194.17392 C221.995621,189.818966 191.321936,86.5574953 273.762255,8.5363545 C279.893926,2.73997258 289.597295,2.98532208 295.437712,9.13439391 C301.247471,15.2988001 300.971545,25.0054397 294.824545,30.8324903 C226.48707,95.4820834 251.550276,181.53842 252.653977,185.157325 C255.106645,193.238525 250.553879,201.825757 242.475403,204.294586 C240.973143,204.739282 239.455555,204.969298 237.968624,204.969298" fill="#454849" id="Fill-10"/><path d="M72.3383904,40.1419703 C241.296589,-13.2215458 233.325416,123.898156 233.325416,123.898156 C233.325416,123.898156 125.683929,209.157107 72.3383904,40.1419703" fill="#3BB777" id="Fill-13"/><path d="M72.3383904,40.1419703 L233.325416,123.898156 C233.325416,123.898156 125.683929,209.157107 72.3383904,40.1419703" fill="#229857" id="Fill-15"/><path d="M92.034851,50.3822451 C107.992525,93.563757 129.024157,119.448129 154.685201,127.421988 C180.867437,135.610527 206.574468,122.791016 217.872072,115.859893 C217.059626,102.641688 212.736798,74.2271496 191.06134,57.4667119 C169.784441,41.0282954 136.535454,38.6514721 92.034851,50.3822451 M172.390401,160.743517 C163.882708,160.743517 154.976455,159.593441 145.901582,156.80259 C107.103433,144.90314 77.4261445,107.211323 57.7281509,44.7545409 C56.5018167,40.874952 56.869717,36.6580074 58.7398767,33.069771 C60.6253656,29.4662002 63.8444929,26.7366871 67.7227749,25.5099396 C130.158516,5.82064223 178.046868,8.45814935 210.054191,33.3917922 C251.565605,65.7165888 248.760366,122.376989 248.622403,124.799815 C248.377136,129.154769 246.26171,133.187701 242.827974,135.917214 C241.295056,137.128627 210.958613,160.743517 172.390401,160.743517" fill="#454849" id="Fill-17"/><path d="M188.449248,258.907852 C133.708754,258.907852 104.659962,219.789941 103.418299,218.072494 C99.6779791,212.935489 100.827667,205.743682 105.962942,202.017436 C111.082887,198.306525 118.241614,199.410598 121.997262,204.532269 C123.116292,206.035034 147.229089,237.869132 192.496151,235.81433 C198.888418,235.032278 204.207643,240.460636 204.483568,246.809054 C204.759493,253.142138 199.838827,258.524493 193.507877,258.785177 C191.791009,258.861849 190.104799,258.907852 188.449248,258.907852" fill="#FEFEFE" id="Fill-19"/><path d="M98.8747302,166.171874 C105.205681,171.538895 106.002798,181.030854 100.622256,187.363938 C95.2570442,193.712356 85.7682831,194.494407 79.4373326,189.127387 C73.1063822,183.760367 72.3092649,174.268408 77.6898064,167.91999 C83.0550186,161.586906 92.5437797,160.804854 98.8747302,166.171874" fill="#FEFEFE" id="Fill-21"/></g></g></g></svg>