<?xml version="1.0" ?><!DOCTYPE svg  PUBLIC '-//W3C//DTD SVG 1.1//EN'  'http://www.w3.org/Graphics/SVG/1.1/DTD/svg11.dtd'><svg enable-background="new 0 0 91 91" height="91px" id="Layer_1" version="1.1" viewBox="0 0 91 91" width="91px" xml:space="preserve" xmlns="http://www.w3.org/2000/svg" xmlns:xlink="http://www.w3.org/1999/xlink"><g><g><g><path d="M28.595,25.895c0,0-12.547-1.861-16.498,4.878c-3.952,6.74-2.556,16.5-2.556,17.897     c0,1.392-2.326,5.805-4.881,9.988c-2.554,4.185-3.485,11.157,0,14.877c3.485,3.715,10.688,3.949,16.266,1.855     c5.581-2.09,10.46-4.413,15.799-2.556c5.349,1.859,24.643,10.774,36.026,3.876c11.386-6.896,24.634-23.861,8.134-48.262     S38.357,13.115,34.411,22.64C34.411,22.64,33.244,27.52,28.595,25.895z" fill="#FFFFFF"/><path d="M62.173,81.516c-9.019,0-18.657-3.708-23.836-5.699c-0.943-0.362-1.735-0.667-2.342-0.878     c-1.074-0.374-2.158-0.557-3.315-0.557c-2.899,0-5.84,1.13-9.246,2.437c-0.568,0.217-1.144,0.439-1.727,0.656     c-2.549,0.958-5.339,1.465-8.065,1.465c-4.492,0-8.258-1.379-10.605-3.881c-4.167-4.447-3.413-12.421-0.276-17.561     c3.161-5.174,4.474-8.203,4.558-8.896c-0.003-0.088-0.027-0.362-0.055-0.733c-0.236-3.221-0.867-11.775,2.914-18.223     c3.01-5.136,9.603-6.214,14.604-6.214c2.362,0,4.068,0.249,4.141,0.26l0.407,0.101C29.723,23.931,30.076,24,30.38,24     c1.359,0,1.85-1.821,1.871-1.899l0.104-0.313c2.649-6.397,12.053-11.221,21.872-11.221c6.444,0,18.717,2.161,28.504,16.634     c7,10.353,9.507,20.362,7.447,29.75C87.484,69.24,77.901,76.195,73.905,78.615C70.728,80.54,66.781,81.516,62.173,81.516z      M32.68,69.929c1.663,0,3.226,0.263,4.778,0.804c0.642,0.224,1.48,0.544,2.477,0.93c4.91,1.888,14.046,5.402,22.238,5.402     c3.783,0,6.954-0.76,9.425-2.257c3.505-2.124,11.907-8.205,14.232-18.811c1.786-8.149-0.498-16.999-6.788-26.302     C72.643,20.232,63.83,15.02,54.227,15.02c-8.707,0-15.917,4.306-17.704,8.343c-0.521,1.873-2.385,5.089-6.142,5.089     c-0.733,0-1.501-0.128-2.287-0.378c-0.447-0.055-1.703-0.189-3.311-0.189c-3.142,0-8.717,0.522-10.765,4.013     c-3.079,5.252-2.522,12.802-2.313,15.643c0.039,0.527,0.064,0.912,0.064,1.129c0,1.741-1.752,5.492-5.208,11.15     c-2.229,3.649-2.872,9.422-0.275,12.192c1.474,1.572,4.155,2.473,7.357,2.473c2.167,0,4.475-0.418,6.503-1.179     c0.572-0.215,1.136-0.432,1.692-0.646C25.498,71.257,28.954,69.929,32.68,69.929z" fill="#434B56"/></g><g><path d="M69.73,49.368c0,8.979-7.28,16.263-16.271,16.263c-8.981,0-16.265-7.283-16.265-16.263     c0-8.986,7.283-16.27,16.265-16.27C62.45,33.098,69.73,40.382,69.73,49.368z" fill="#F69B77"/><path d="M53.46,67.856c-10.197,0-18.491-8.295-18.491-18.488c0-10.199,8.294-18.496,18.491-18.496     c10.199,0,18.497,8.297,18.497,18.496C71.957,59.562,63.659,67.856,53.46,67.856z M53.46,35.324     c-7.741,0-14.039,6.299-14.039,14.044c0,7.739,6.297,14.035,14.039,14.035c7.744,0,14.045-6.296,14.045-14.035     C67.505,41.623,61.204,35.324,53.46,35.324z" fill="#434B56"/></g><path d="M60.145,49.297c-0.877,0-1.708-0.521-2.061-1.382c-1.031-2.52-3.228-4.404-5.872-5.042    c-1.196-0.287-1.931-1.489-1.643-2.686c0.287-1.194,1.491-1.934,2.686-1.641c4.031,0.972,7.377,3.843,8.949,7.679    c0.466,1.139-0.079,2.438-1.216,2.904C60.713,49.243,60.426,49.297,60.145,49.297z" fill="#FFFFFF"/></g><circle cx="60.605" cy="53.453" fill="#FFFFFF" r="2.27"/></g></svg>